<svg xmlns="http://www.w3.org/2000/svg" width="26.75" height="26.75" viewBox="0 0 26.75 26.75">
  <path id="add_circle_FILL0_wght400_GRAD0_opsz48" d="M92.472-859.937h2.006v-5.551h5.584v-2.006H94.478v-5.818H92.472v5.818H86.687v2.006h5.785Zm.912,6.688a12.947,12.947,0,0,1-5.2-1.053,13.594,13.594,0,0,1-4.255-2.876,13.583,13.583,0,0,1-2.876-4.258,12.97,12.97,0,0,1-1.053-5.2,12.972,12.972,0,0,1,1.053-5.2,13.38,13.38,0,0,1,2.876-4.241,13.725,13.725,0,0,1,4.258-2.859,12.967,12.967,0,0,1,5.2-1.053,12.968,12.968,0,0,1,5.2,1.053,13.521,13.521,0,0,1,4.241,2.859,13.5,13.5,0,0,1,2.859,4.247,13,13,0,0,1,1.053,5.207,12.948,12.948,0,0,1-1.053,5.2,13.659,13.659,0,0,1-2.859,4.249,13.5,13.5,0,0,1-4.247,2.876A12.935,12.935,0,0,1,93.384-853.25Zm.008-2.006a10.92,10.92,0,0,0,8.042-3.327,11,11,0,0,0,3.31-8.059,10.958,10.958,0,0,0-3.3-8.042,10.962,10.962,0,0,0-8.065-3.31,10.994,10.994,0,0,0-8.042,3.3,10.934,10.934,0,0,0-3.327,8.065,10.956,10.956,0,0,0,3.327,8.042A10.975,10.975,0,0,0,93.392-855.256ZM93.375-866.625Z" transform="translate(-80 880)"/>
</svg>
