<svg xmlns="http://www.w3.org/2000/svg" width="39.175" height="39.175" viewBox="0 0 39.175 39.175">
  <path id="add_circle_FILL0_wght400_GRAD0_opsz48" d="M98.265-850.619H101.2v-8.129h8.178v-2.938H101.2v-8.521H98.265v8.521H89.794v2.938h8.472Zm1.335,9.794a18.959,18.959,0,0,1-7.615-1.543,19.9,19.9,0,0,1-6.232-4.211,19.891,19.891,0,0,1-4.211-6.236A19,19,0,0,1,80-860.437a19,19,0,0,1,1.543-7.622,19.6,19.6,0,0,1,4.211-6.211,20.1,20.1,0,0,1,6.236-4.187A19,19,0,0,1,99.612-880a19,19,0,0,1,7.622,1.542,19.8,19.8,0,0,1,6.211,4.187,19.779,19.779,0,0,1,4.187,6.219,19.041,19.041,0,0,1,1.543,7.626,18.96,18.96,0,0,1-1.543,7.615,20.006,20.006,0,0,1-4.187,6.223,19.774,19.774,0,0,1-6.219,4.211A18.947,18.947,0,0,1,99.6-840.825Zm.011-2.938a15.992,15.992,0,0,0,11.777-4.872,16.114,16.114,0,0,0,4.848-11.8,16.049,16.049,0,0,0-4.839-11.777,16.053,16.053,0,0,0-11.811-4.848,16.1,16.1,0,0,0-11.777,4.839,16.012,16.012,0,0,0-4.872,11.811,16.045,16.045,0,0,0,4.872,11.777A16.073,16.073,0,0,0,99.612-843.763ZM99.588-860.412Z" transform="translate(-80 880)"/>
</svg>
