<svg xmlns="http://www.w3.org/2000/svg" width="26.795" height="26.795" viewBox="0 0 26.795 26.795">
  <path id="account_circle_FILL0_wght400_GRAD0_opsz48" d="M84.756-859.066a19.29,19.29,0,0,1,4.187-2.261,12.463,12.463,0,0,1,4.455-.787,12.6,12.6,0,0,1,4.471.787,19.136,19.136,0,0,1,4.2,2.261,11.758,11.758,0,0,0,2.093-3.651,12.1,12.1,0,0,0,.62-3.885,11.026,11.026,0,0,0-3.266-8.122A11.026,11.026,0,0,0,93.4-877.99a11.026,11.026,0,0,0-8.122,3.266A11.026,11.026,0,0,0,82.01-866.6a11.815,11.815,0,0,0,.636,3.885A12.054,12.054,0,0,0,84.756-859.066Zm8.635-6.531a4.419,4.419,0,0,1-3.259-1.329,4.45,4.45,0,0,1-1.323-3.266,4.419,4.419,0,0,1,1.329-3.259,4.45,4.45,0,0,1,3.266-1.323,4.419,4.419,0,0,1,3.259,1.329,4.45,4.45,0,0,1,1.323,3.266,4.419,4.419,0,0,1-1.329,3.259A4.45,4.45,0,0,1,93.391-865.6Zm.022,12.393a13,13,0,0,1-5.207-1.055,13.59,13.59,0,0,1-4.27-2.881,13.613,13.613,0,0,1-2.88-4.263A12.969,12.969,0,0,1,80-866.611a12.905,12.905,0,0,1,1.055-5.2,13.642,13.642,0,0,1,2.88-4.254,13.613,13.613,0,0,1,4.263-2.88A12.968,12.968,0,0,1,93.406-880a12.9,12.9,0,0,1,5.2,1.055,13.642,13.642,0,0,1,4.254,2.88,13.639,13.639,0,0,1,2.88,4.255,12.891,12.891,0,0,1,1.055,5.192,13,13,0,0,1-1.055,5.207,13.588,13.588,0,0,1-2.88,4.27A13.64,13.64,0,0,1,98.6-854.26,12.892,12.892,0,0,1,93.413-853.205Zm-.016-2.01a12.284,12.284,0,0,0,3.6-.536,10.7,10.7,0,0,0,3.467-1.876,14.578,14.578,0,0,0-3.483-1.842A10.552,10.552,0,0,0,93.4-860.1a10.552,10.552,0,0,0-3.584.636,14.578,14.578,0,0,0-3.483,1.842,10.7,10.7,0,0,0,3.467,1.876A12.284,12.284,0,0,0,93.4-855.215Zm0-12.393a2.516,2.516,0,0,0,1.859-.72,2.516,2.516,0,0,0,.72-1.859,2.515,2.515,0,0,0-.72-1.859,2.516,2.516,0,0,0-1.859-.72,2.516,2.516,0,0,0-1.859.72,2.516,2.516,0,0,0-.72,1.859,2.516,2.516,0,0,0,.72,1.859A2.516,2.516,0,0,0,93.4-867.607ZM93.4-870.186ZM93.4-857.66Z" transform="translate(-80 880)" fill="#053c5e"/>
</svg>
