<svg xmlns="http://www.w3.org/2000/svg" width="30.222" height="34" viewBox="0 0 30.222 34">
  <path id="delete_FILL0_wght400_GRAD0_opsz48" d="M164.769-806a2.728,2.728,0,0,1-2-.832,2.728,2.728,0,0,1-.832-2V-835.75H160v-2.833h8.878V-840h12.467v1.417h8.878v2.833h-1.936v26.917a2.719,2.719,0,0,1-.85,1.983,2.718,2.718,0,0,1-1.983.85Zm20.683-29.75H164.769v26.917h20.683Zm-15.678,22.855h2.833v-18.842h-2.833Zm7.839,0h2.833v-18.842h-2.833ZM164.769-835.75v0Z" transform="translate(-160 840)" fill="#f08700"/>
</svg>
