<svg xmlns="http://www.w3.org/2000/svg" width="30" height="30" viewBox="0 0 30 30">
  <path id="info_FILL0_wght400_GRAD0_opsz24" d="M93.5-857.5h3v-9h-3Zm1.5-12a1.451,1.451,0,0,0,1.069-.431A1.452,1.452,0,0,0,96.5-871a1.451,1.451,0,0,0-.431-1.069A1.451,1.451,0,0,0,95-872.5a1.451,1.451,0,0,0-1.069.431A1.451,1.451,0,0,0,93.5-871a1.452,1.452,0,0,0,.431,1.069A1.451,1.451,0,0,0,95-869.5ZM95-850a14.608,14.608,0,0,1-5.85-1.181,15.149,15.149,0,0,1-4.763-3.206,15.149,15.149,0,0,1-3.206-4.763A14.607,14.607,0,0,1,80-865a14.606,14.606,0,0,1,1.181-5.85,15.148,15.148,0,0,1,3.206-4.763,15.148,15.148,0,0,1,4.763-3.206A14.606,14.606,0,0,1,95-880a14.606,14.606,0,0,1,5.85,1.181,15.148,15.148,0,0,1,4.763,3.206,15.147,15.147,0,0,1,3.206,4.763A14.606,14.606,0,0,1,110-865a14.607,14.607,0,0,1-1.181,5.85,15.149,15.149,0,0,1-3.206,4.763,15.149,15.149,0,0,1-4.763,3.206A14.608,14.608,0,0,1,95-850Zm0-3a11.581,11.581,0,0,0,8.512-3.487A11.582,11.582,0,0,0,107-865a11.582,11.582,0,0,0-3.488-8.513A11.582,11.582,0,0,0,95-877a11.582,11.582,0,0,0-8.512,3.487A11.582,11.582,0,0,0,83-865a11.582,11.582,0,0,0,3.488,8.513A11.581,11.581,0,0,0,95-853ZM95-865Z" transform="translate(-80 880)" fill="#f08700"/>
</svg>
