<svg xmlns="http://www.w3.org/2000/svg" width="66" height="66" viewBox="0 0 66 66">
  <g id="Groupe_21" data-name="Groupe 21" transform="translate(-402 -5892)">
    <g id="Ellipse_34" data-name="Ellipse 34" transform="translate(402 5892)" fill="none" stroke="#dcdce3" stroke-width="1">
      <circle cx="33" cy="33" r="33" stroke="none"/>
      <circle cx="33" cy="33" r="32.5" fill="none"/>
    </g>
    <g id="Icon_feather-instagram" data-name="Icon feather-instagram" transform="translate(422.126 5912.125)">
      <path id="Tracé_8" data-name="Tracé 8" d="M7.937,3h9.874a4.937,4.937,0,0,1,4.937,4.937v9.874a4.937,4.937,0,0,1-4.937,4.937H7.937A4.937,4.937,0,0,1,3,17.811V7.937A4.937,4.937,0,0,1,7.937,3Z" fill="none" stroke="#fff" stroke-linecap="round" stroke-linejoin="round" stroke-width="2"/>
      <path id="Tracé_9" data-name="Tracé 9" d="M19.922,15.305a3.95,3.95,0,1,1-3.328-3.328A3.95,3.95,0,0,1,19.922,15.305Z" transform="translate(-3.098 -3.053)" fill="none" stroke="#fff" stroke-linecap="round" stroke-linejoin="round" stroke-width="2"/>
      <path id="Tracé_10" data-name="Tracé 10" d="M26.25,9.75h0" transform="translate(-7.945 -2.307)" fill="none" stroke="#fff" stroke-linecap="round" stroke-linejoin="round" stroke-width="2"/>
    </g>
  </g>
</svg>
