<svg xmlns="http://www.w3.org/2000/svg" width="16" height="20" viewBox="0 0 16 20">
  <path id="location_on_FILL0_wght400_GRAD0_opsz24" d="M168-870a1.926,1.926,0,0,0,1.413-.588A1.926,1.926,0,0,0,170-872a1.926,1.926,0,0,0-.587-1.412A1.926,1.926,0,0,0,168-874a1.926,1.926,0,0,0-1.413.588A1.926,1.926,0,0,0,166-872a1.926,1.926,0,0,0,.587,1.412A1.926,1.926,0,0,0,168-870Zm0,7.35a27.519,27.519,0,0,0,4.525-5.087A7.764,7.764,0,0,0,174-871.8a6.041,6.041,0,0,0-1.738-4.463A5.8,5.8,0,0,0,168-878a5.8,5.8,0,0,0-4.262,1.737A6.041,6.041,0,0,0,162-871.8a7.764,7.764,0,0,0,1.475,4.063A27.519,27.519,0,0,0,168-862.65Zm0,2.65a33.244,33.244,0,0,1-6.012-6.362A9.9,9.9,0,0,1,160-871.8a7.734,7.734,0,0,1,2.413-5.975A7.991,7.991,0,0,1,168-880a7.991,7.991,0,0,1,5.587,2.225A7.734,7.734,0,0,1,176-871.8a9.9,9.9,0,0,1-1.988,5.438A33.244,33.244,0,0,1,168-860ZM168-872Z" transform="translate(-160 880)" fill="#f08700"/>
</svg>
