<svg xmlns="http://www.w3.org/2000/svg" width="29.609" height="30.175" viewBox="0 0 29.609 30.175">
  <path id="shopping_cart_FILL0_wght400_GRAD0_opsz48" d="M59.9-849.825a2.6,2.6,0,0,1-1.918-.8,2.639,2.639,0,0,1-.793-1.926,2.6,2.6,0,0,1,.8-1.918,2.639,2.639,0,0,1,1.926-.793,2.6,2.6,0,0,1,1.918.8,2.639,2.639,0,0,1,.793,1.926,2.6,2.6,0,0,1-.8,1.918A2.64,2.64,0,0,1,59.9-849.825Zm15.106,0a2.6,2.6,0,0,1-1.918-.8,2.639,2.639,0,0,1-.793-1.926,2.6,2.6,0,0,1,.8-1.918,2.639,2.639,0,0,1,1.926-.793,2.6,2.6,0,0,1,1.918.8,2.639,2.639,0,0,1,.793,1.926,2.6,2.6,0,0,1-.8,1.918A2.64,2.64,0,0,1,75.011-849.825ZM57.949-874.751,62.1-866.14H72.98l4.721-8.611Zm-1.133-2.266H79.063a1.438,1.438,0,0,1,1.32.793,1.5,1.5,0,0,1,0,1.586l-5.1,9.177a3.371,3.371,0,0,1-1.079,1.152,2.6,2.6,0,0,1-1.452.434H61.31L59.2-859.946H77.738v2.266h-18.2a2.534,2.534,0,0,1-2.285-1.057,2.173,2.173,0,0,1,.019-2.379l2.417-4.456-5.74-12.161H51V-880h4.419ZM62.1-866.14h0Z" transform="translate(-51 880)"/>
</svg>
