<svg id="Composant_11_1" data-name="Composant 11 – 1" xmlns="http://www.w3.org/2000/svg" width="166.842" height="28.35" viewBox="0 0 166.842 28.35">
  <path id="grade_FILL0_wght400_GRAD0_opsz48" d="M89.065-816.313l5.856-3.506,5.857,3.544-1.567-6.64,5.148-4.476-6.789-.6-2.648-6.267-2.648,6.23-6.789.6,5.148,4.476Zm-3.357,4.663,2.425-10.482L80-829.182l10.743-.932L94.921-840l4.178,9.885,10.743.932-8.132,7.05,2.425,10.482-9.214-5.558ZM94.921-824.892Z" transform="translate(-80 840)" fill="#efca08"/>
  <path id="grade_FILL0_wght400_GRAD0_opsz48-2" data-name="grade_FILL0_wght400_GRAD0_opsz48" d="M89.065-816.313l5.856-3.506,5.857,3.544-1.567-6.64,5.148-4.476-6.789-.6-2.648-6.267-2.648,6.23-6.789.6,5.148,4.476Zm-3.357,4.663,2.425-10.482L80-829.182l10.743-.932L94.921-840l4.178,9.885,10.743.932-8.132,7.05,2.425,10.482-9.214-5.558ZM94.921-824.892Z" transform="translate(-46 840)" fill="#efca08"/>
  <path id="grade_FILL0_wght400_GRAD0_opsz48-3" data-name="grade_FILL0_wght400_GRAD0_opsz48" d="M89.065-816.313l5.856-3.506,5.857,3.544-1.567-6.64,5.148-4.476-6.789-.6-2.648-6.267-2.648,6.23-6.789.6,5.148,4.476Zm-3.357,4.663,2.425-10.482L80-829.182l10.743-.932L94.921-840l4.178,9.885,10.743.932-8.132,7.05,2.425,10.482-9.214-5.558ZM94.921-824.892Z" transform="translate(-12 840)" fill="#efca08"/>
  <path id="grade_FILL0_wght400_GRAD0_opsz48-4" data-name="grade_FILL0_wght400_GRAD0_opsz48" d="M89.065-816.313l5.856-3.506,5.857,3.544-1.567-6.64,5.148-4.476-6.789-.6-2.648-6.267-2.648,6.23-6.789.6,5.148,4.476Zm-3.357,4.663,2.425-10.482L80-829.182l10.743-.932L94.921-840l4.178,9.885,10.743.932-8.132,7.05,2.425,10.482-9.214-5.558ZM94.921-824.892Z" transform="translate(22 840)" fill="#efca08"/>
  <path id="grade_FILL0_wght400_GRAD0_opsz48-5" data-name="grade_FILL0_wght400_GRAD0_opsz48" d="M89.065-816.313l5.856-3.506,5.857,3.544-1.567-6.64,5.148-4.476-6.789-.6-2.648-6.267-2.648,6.23-6.789.6,5.148,4.476Zm-3.357,4.663,2.425-10.482L80-829.182l10.743-.932L94.921-840l4.178,9.885,10.743.932-8.132,7.05,2.425,10.482-9.214-5.558ZM94.921-824.892Z" transform="translate(57 840)" fill="#efca08"/>
</svg>
