<svg xmlns="http://www.w3.org/2000/svg" width="25" height="20" viewBox="0 0 25 20">
  <path id="smart_display_FILL0_wght400_GRAD0_opsz24" d="M89.375-784.375,98.125-790l-8.75-5.625ZM82.5-780a2.407,2.407,0,0,1-1.766-.734A2.407,2.407,0,0,1,80-782.5v-15a2.407,2.407,0,0,1,.734-1.766A2.407,2.407,0,0,1,82.5-800h20a2.407,2.407,0,0,1,1.766.734A2.407,2.407,0,0,1,105-797.5v15a2.407,2.407,0,0,1-.734,1.766A2.407,2.407,0,0,1,102.5-780Zm0-2.5h20v-15h-20Zm0,0v0Z" transform="translate(-80 800)" fill="#f08700"/>
</svg>
